<svg width="800px" height="800px" viewBox="0 0 40 24" fill="none" xmlns="http://www.w3.org/2000/svg">
    <path d="M9.5 5H9C7.89543 5 7 5.89543 7 7V9C7 10 6.4 12 4 12C5 12 7 12.6 7 15V17.0002C7 18.1048 7.89543 19 9 19H9.5" stroke="#000000" stroke-linecap="round" stroke-linejoin="round" stroke-width="2"/>
    <path d="M29.5 5H30C31.1046 5 32 5.89543 32 7V9C32 10 32.6 12 35 12C34 12 32 12.6 32 15V17.0002C32 18.1048 31.1046 19 30 19H29.5" stroke="#000000" stroke-linecap="round" stroke-linejoin="round" stroke-width="2"/>
</svg>
